<?xml version="1.0" encoding="UTF-8"?>
<svg width="40px" height="40px" viewBox="0 0 40 40" version="1.1" xmlns="http://www.w3.org/2000/svg" xmlns:xlink="http://www.w3.org/1999/xlink">
    <title>编组 47</title>
    <g id="页面-1" stroke="none" stroke-width="1" fill="none" fill-rule="evenodd">
        <g id="0-2" transform="translate(-164.000000, -1424.000000)">
            <g id="编组-54" transform="translate(0.000000, 185.000000)">
                <g id="编组-47" transform="translate(164.000000, 1239.000000)">
                    <rect id="矩形备份-57" x="0" y="0" width="40" height="40"></rect>
                    <g id="编组-10" transform="translate(6.000000, 6.000000)">
                        <rect id="矩形" x="0" y="0" width="28" height="28"></rect>
                        <g id="icon-telegram.29cb3084" transform="translate(1.272727, 3.181818)" fill="#9794A9" fill-rule="nonzero">
                            <path d="M9.57600257,20.3273903 L9.97144423,14.275975 L20.8178438,4.37626006 C21.2980229,3.93277571 20.7189834,3.71818652 20.0834521,4.10444707 L6.69492769,12.673709 L0.904532107,10.813936 C-0.338284519,10.4562873 -0.352407446,9.58362457 1.18699042,8.9541629 L23.7412874,0.141699934 C24.7722603,-0.330396298 25.7608644,0.399206969 25.3654227,2.00147295 L21.5239896,20.3273903 C21.2556542,21.6292314 20.4788938,21.9439623 19.4055522,21.3431125 L13.5586649,16.9654929 L10.7482046,19.7265406 C10.4233775,20.0555773 10.1550421,20.3273903 9.57600257,20.3273903 Z" id="路径"></path>
                        </g>
                    </g>
                </g>
            </g>
        </g>
    </g>
</svg>