<?xml version="1.0" encoding="UTF-8"?>
<svg width="40px" height="40px" viewBox="0 0 40 40" version="1.1" xmlns="http://www.w3.org/2000/svg" xmlns:xlink="http://www.w3.org/1999/xlink">
    <title>编组 49</title>
    <g id="页面-1" stroke="none" stroke-width="1" fill="none" fill-rule="evenodd">
        <g id="0-2" transform="translate(-268.000000, -1424.000000)">
            <g id="编组-54" transform="translate(0.000000, 185.000000)">
                <g id="编组-49" transform="translate(268.000000, 1239.000000)">
                    <rect id="矩形备份-59" x="0" y="0" width="40" height="40"></rect>
                    <g id="编组-12" transform="translate(6.000000, 6.000000)">
                        <rect id="矩形备份-13" x="0" y="0" width="28" height="28"></rect>
                        <g id="icon-twitter.b065fcc5" transform="translate(1.272727, 3.181818)" fill="#9794A9" fill-rule="nonzero">
                            <path d="M25.4173182,3.13572386 C24.7605333,4.0118029 23.9666439,4.77601557 23.0663101,5.39884785 L23.0663101,6.09812772 C23.0735234,10.2541111 21.413454,14.2391603 18.458256,17.1599081 C15.5030579,20.0806558 11.4999422,21.6927729 7.34632633,21.6348553 C4.94503111,21.642877 2.57448525,21.0945642 0.420383564,20.0328687 C0.304234638,19.982154 0.229319997,19.8672304 0.229761287,19.7404425 L0.229761287,19.6005865 C0.229761287,19.5129143 0.264572449,19.4288328 0.326536713,19.3668392 C0.388500978,19.3048455 0.472542555,19.2700179 0.560173254,19.2700179 C2.92058905,19.1922233 5.19679632,18.3738233 7.06674698,16.9306088 C4.93024411,16.8875859 3.00793553,15.621919 2.12327593,13.6757788 C2.07859091,13.5694794 2.09250433,13.4475656 2.15998984,13.3540798 C2.22747535,13.260594 2.33877769,13.2090499 2.45368787,13.2180684 C3.10301858,13.2833384 3.75883722,13.2229054 4.38532693,13.0400698 C2.02680459,12.5504829 0.254639487,10.5924679 0.0010145538,8.19596736 C-0.00799962692,8.08100268 0.0435199923,7.96964754 0.136961469,7.90213002 C0.230402945,7.8346125 0.352259008,7.82069248 0.45850802,7.8653987 C1.09143278,8.14467689 1.77467263,8.29177293 2.46639603,8.29768082 C0.399771831,6.9412542 -0.492873241,4.36127858 0.293302066,2.01687604 C0.374453918,1.78906706 0.569420656,1.62077693 0.806556046,1.57384878 C1.04369144,1.52692062 1.28801537,1.60827688 1.44974386,1.78802081 C4.2385249,4.75611803 8.0703547,6.52479243 12.1372996,6.72112253 C12.0331265,6.30543758 11.9818878,5.87824604 11.9848017,5.44970455 C12.022839,3.20263636 13.4131867,1.20090357 15.5049372,0.381640771 C17.5966878,-0.437622027 19.9758628,0.0877254834 21.5286238,1.71173573 C22.5870744,1.51009789 23.6103326,1.15457187 24.5658721,0.656458824 C24.6358657,0.612759425 24.7246251,0.612759425 24.7946188,0.656458824 C24.8382975,0.726485674 24.8382975,0.815287207 24.7946188,0.885314058 C24.3317885,1.94517269 23.5498981,2.83410595 22.5579841,3.42814998 C23.4265886,3.32742114 24.2799285,3.12252242 25.0996144,2.81786936 C25.168634,2.77089058 25.2593416,2.77089058 25.3283612,2.81786936 C25.3861715,2.84432205 25.4294028,2.8949054 25.4465431,2.95614987 C25.4636834,3.01739434 25.4529929,3.08308294 25.4173182,3.13572386 L25.4173182,3.13572386 Z" id="路径"></path>
                        </g>
                    </g>
                </g>
            </g>
        </g>
    </g>
</svg>