<?xml version="1.0" encoding="UTF-8"?>
<svg width="40px" height="40px" viewBox="0 0 40 40" version="1.1" xmlns="http://www.w3.org/2000/svg" xmlns:xlink="http://www.w3.org/1999/xlink">
    <title>编组 48</title>
    <g id="页面-1" stroke="none" stroke-width="1" fill="none" fill-rule="evenodd">
        <g id="0-2" transform="translate(-216.000000, -1424.000000)">
            <g id="编组-54" transform="translate(0.000000, 185.000000)">
                <g id="编组-48" transform="translate(216.000000, 1239.000000)">
                    <rect id="矩形备份-58" x="0" y="0" width="40" height="40"></rect>
                    <g id="编组-11" transform="translate(6.000000, 6.000000)">
                        <rect id="矩形备份-12" x="0" y="0" width="28" height="28"></rect>
                        <g id="icon-facebook.a06acd02" transform="translate(6.363636, 1.272727)" fill="#9794A9" fill-rule="nonzero">
                            <path d="M15.9090909,0.715335707 C15.9090909,0.527871528 15.8329031,0.348085393 15.697288,0.215528201 C15.5616728,0.0829710088 15.3777392,0.00850115365 15.1859504,0.00850115365 L11.5702479,0.00850115365 C7.78000314,-0.176047081 4.54895153,2.66632875 4.33884298,6.37001223 L4.33884298,10.1869189 L0.723140485,10.1869189 C0.323761023,10.1869189 0,10.5033795 0,10.8937534 L0,14.5692932 C0,14.9596671 0.323761023,15.2761277 0.723140485,15.2761277 L4.33884298,15.2761277 L4.33884298,24.7477109 C4.33884298,25.1380848 4.662604,25.4545455 5.06198346,25.4545455 L9.40082644,25.4545455 C9.59261523,25.4545455 9.77654885,25.3800756 9.912164,25.2475184 C10.0477792,25.1149612 10.123967,24.9351751 10.123967,24.7477109 L10.123967,15.2761277 L13.9132231,15.2761277 C14.2440519,15.280773 14.5359106,15.0653592 14.6219008,14.7530701 L15.6632232,11.0775304 C15.7215349,10.8658647 15.6760771,10.639733 15.5401644,10.46537 C15.4042518,10.2910071 15.193267,10.1881474 14.9690083,10.1869189 L10.123967,10.1869189 L10.123967,6.37001223 C10.1985112,5.64493952 10.8247218,5.09405817 11.5702479,5.09771001 L15.1859504,5.09771001 C15.5853299,5.09771001 15.9090909,4.78124941 15.9090909,4.39087546 L15.9090909,0.715335707 Z" id="路径"></path>
                        </g>
                    </g>
                </g>
            </g>
        </g>
    </g>
</svg>