<?xml version="1.0" encoding="UTF-8"?>
<svg width="40px" height="40px" viewBox="0 0 40 40" version="1.1" xmlns="http://www.w3.org/2000/svg" xmlns:xlink="http://www.w3.org/1999/xlink">
    <title>编组 50</title>
    <g id="页面-1" stroke="none" stroke-width="1" fill="none" fill-rule="evenodd">
        <g id="0-2" transform="translate(-320.000000, -1424.000000)">
            <g id="编组-54" transform="translate(0.000000, 185.000000)">
                <g id="编组-50" transform="translate(320.000000, 1239.000000)">
                    <rect id="矩形备份-60" x="0" y="0" width="40" height="40"></rect>
                    <g id="编组-14" transform="translate(6.000000, 6.000000)">
                        <rect id="矩形备份-14" x="0" y="0" width="28" height="28"></rect>
                        <g id="icon-discord.1180aa0d" transform="translate(1.272727, 4.454545)" fill="#9794A9" fill-rule="nonzero">
                            <path d="M21.5814986,1.61236314 C21.5744237,1.59886825 21.5626991,1.58829368 21.5484249,1.58253352 C19.898063,0.837161108 18.156458,0.30565222 16.3671946,0.00130813046 C16.3338533,-0.00479349851 16.3002951,0.0108386986 16.2839475,0.0400866327 C16.0467953,0.463790335 15.8315136,0.899003836 15.6389236,1.34406704 C13.7101953,1.05586256 11.748324,1.05586256 9.81959571,1.34406704 C9.62573067,0.897873705 9.40699907,0.462551704 9.16439859,0.0400866327 C9.14737014,0.0115383931 9.11432947,-0.00384475466 9.08110826,0.00130813046 C7.29165566,0.305013283 5.54993758,0.836562131 3.89979129,1.58257613 C3.88566538,1.5884711 3.87374624,1.59853637 3.86567862,1.61138302 C0.565710272,6.46244581 -0.338275598,11.1942327 0.105189168,15.8674258 C0.107709749,15.8905665 0.119660171,15.9117104 0.138306168,15.9260197 C2.05984716,17.3265429 4.209114,18.395573 6.49438918,19.0874903 C6.52734906,19.097223 6.56298001,19.0857299 6.58369686,19.0586835 C7.0745244,18.4012728 7.50943446,17.7051331 7.88400447,16.9773432 C7.894415,16.9571424 7.89554806,16.9335223 7.88711761,16.9124457 C7.87868717,16.8913691 7.86149884,16.8748501 7.83989176,16.8670589 C7.15407036,16.6087487 6.49011515,16.297362 5.85425706,15.9358208 C5.83080008,15.9222468 5.81575956,15.8980566 5.81415206,15.8713187 C5.81254456,15.8445807 5.82458159,15.8188131 5.84624837,15.8026103 C5.98004828,15.7042282 6.11152667,15.6028231 6.24057876,15.498476 C6.26366616,15.4797579 6.29553331,15.4755313 6.32283014,15.4875669 C10.4886024,17.3590345 14.9986183,17.3590345 19.115083,15.4875669 C19.142463,15.4747551 19.1748917,15.4786209 19.1983734,15.4974959 C19.3275721,15.6023947 19.4593878,15.7041306 19.5936994,15.8026103 C19.6154821,15.8186469 19.6277093,15.8443177 19.6263016,15.8710576 C19.6248938,15.8977975 19.6100364,15.9220866 19.5866864,15.9358208 C18.9522742,16.3004033 18.2877171,16.611595 17.6000993,16.8660788 C17.5785028,16.8741687 17.5614327,16.8909361 17.5531681,16.9121779 C17.5449035,16.9334196 17.5462278,16.9571218 17.5568091,16.9773432 C17.9376503,17.7010857 18.3719199,18.3963484 18.8561211,19.0575329 C18.8762754,19.0853477 18.9122404,19.0973604 18.9454287,19.0873625 C21.2347991,18.3977909 23.3878224,17.3286614 25.3117715,15.9260197 C25.3307229,15.9124048 25.3427917,15.8914085 25.3448885,15.8684059 C25.8757995,10.4657083 24.4560542,5.77269984 21.5814986,1.61236314 L21.5814986,1.61236314 Z M8.50612788,13.021936 C7.25192432,13.021936 6.21850076,11.8889645 6.21850076,10.4975407 C6.21850076,9.10611693 7.23188096,7.97306023 8.50612788,7.97306023 C9.79033154,7.97306023 10.8137551,9.11596071 10.7937117,10.4974555 C10.7937117,11.8889645 9.78028821,13.021936 8.50612788,13.021936 Z M16.9641664,13.021936 C15.7100061,13.021936 14.6765825,11.8889645 14.6765825,10.4975407 C14.6765825,9.10611693 15.6899627,7.97306023 16.9641664,7.97306023 C18.2484566,7.97306023 19.2718368,9.11596071 19.2517935,10.4974555 C19.2517935,11.8889645 18.2484566,13.021936 16.9641664,13.021936 Z" id="形状"></path>
                        </g>
                    </g>
                </g>
            </g>
        </g>
    </g>
</svg>