<?xml version="1.0" encoding="UTF-8"?>
<svg width="40px" height="40px" viewBox="0 0 40 40" version="1.1" xmlns="http://www.w3.org/2000/svg" xmlns:xlink="http://www.w3.org/1999/xlink">
    <title>编组 52</title>
    <g id="页面-1" stroke="none" stroke-width="1" fill="none" fill-rule="evenodd">
        <g id="0-2" transform="translate(-43.000000, -662.000000)">
            <g id="编组-54" transform="translate(0.000000, 185.000000)">
                <g id="编组-52" transform="translate(43.000000, 477.000000)">
                    <g id="编组-43">
                        <rect id="矩形备份-53" x="0" y="0" width="40" height="40"></rect>
                        <path d="M6,20.5 C6,12.4918741 12.4918741,6 20.5,6 C28.5080864,6 35,12.4918741 35,20.5 C35,28.5080864 28.5080864,35 20.5,35 C12.4918741,35 6,28.5080864 6,20.5 Z M13.9090909,22.4772727 C15.0010727,22.4772727 15.8863636,21.5919818 15.8863636,20.5 C15.8863636,19.4080182 15.0010727,18.5227273 13.9090909,18.5227273 C12.8171091,18.5227273 11.9318182,19.4080182 11.9318182,20.5 C11.9318182,21.5919818 12.8171091,22.4772727 13.9090909,22.4772727 Z M22.4772727,20.5 C22.4772727,21.5919818 21.5919818,22.4772727 20.5,22.4772727 C19.4080182,22.4772727 18.5227273,21.5919818 18.5227273,20.5 C18.5227273,19.4080182 19.4080182,18.5227273 20.5,18.5227273 C21.5919818,18.5227273 22.4772727,19.4080182 22.4772727,20.5 Z M27.0909091,22.4772727 C28.1828909,22.4772727 29.0681818,21.5919818 29.0681818,20.5 C29.0681818,19.4080182 28.1828909,18.5227273 27.0909091,18.5227273 C25.9989273,18.5227273 25.1136364,19.4080182 25.1136364,20.5 C25.1136364,21.5919818 25.9989273,22.4772727 27.0909091,22.4772727 Z" id="形状" fill="#9794A9"></path>
                    </g>
                    <g id="icon-more.a8cfcb34" transform="translate(6.000000, 6.000000)"></g>
                </g>
            </g>
        </g>
    </g>
</svg>