<?xml version="1.0" encoding="UTF-8"?>
<svg width="40px" height="40px" viewBox="0 0 40 40" version="1.1" xmlns="http://www.w3.org/2000/svg" xmlns:xlink="http://www.w3.org/1999/xlink">
    <title>编组 51</title>
    <g id="页面-1" stroke="none" stroke-width="1" fill="none" fill-rule="evenodd">
        <g id="0-2" transform="translate(-43.000000, -561.000000)">
            <g id="编组-54" transform="translate(0.000000, 185.000000)">
                <g id="编组-51" transform="translate(43.000000, 376.000000)">
                    <g id="编组-42">
                        <rect id="矩形备份-52" x="0" y="0" width="40" height="40"></rect>
                        <path d="M33.8004251,14.5764427 C31.9719068,14.5764427 30.6003188,16.1059627 30.6003188,17.7883946 C30.6003188,18.247264 30.7526732,18.5528214 30.9051604,19.011824 L25.7241814,20.9998134 L22.3717208,14.11784 C23.4386,13.6589706 24.2003719,12.4356346 24.2003719,11.211872 C24.2003719,9.37662131 22.8291824,8 21.0001328,8 C19.1716145,8 17.8000266,9.52955998 17.8000266,11.211872 C17.8000266,12.435328 18.5617985,13.6588373 19.6285449,14.11784 L16.1237298,20.9998134 L11.0954108,19.011824 C11.2477519,18.7057334 11.4003188,18.247264 11.4003188,17.7883946 C11.4003188,15.9530507 10.0291293,14.5764427 8.20015939,14.5764427 C6.37160125,14.5764427 5,16.1059627 5,17.7883946 C5,19.6236053 6.37120276,21.0002133 8.20015939,21.0002133 C8.3525005,21.0002133 8.50508069,21.0002133 8.80963007,21.0002133 L10.4856744,31.2470507 C10.6380155,32.929216 12.0096434,34 13.5330411,34 L28.4661619,34 C29.9901043,34 31.3615594,32.9293493 31.666401,31.2470507 L33.1903434,21.0002133 C33.3426977,21.0002133 33.495185,21.0002133 33.7997609,21.0002133 C35.6282792,21.0002133 37,19.4706933 37,17.7883946 C37,15.9530507 35.6288105,14.5764427 33.7997609,14.5764427 L33.8004251,14.5764427 Z" id="路径" fill="#9894AB" fill-rule="nonzero"></path>
                    </g>
                    <g id="icon-vip.74ff601f" transform="translate(5.000000, 8.000000)"></g>
                </g>
            </g>
        </g>
    </g>
</svg>