<?xml version="1.0" encoding="UTF-8"?>
<svg width="40px" height="40px" viewBox="0 0 40 40" version="1.1" xmlns="http://www.w3.org/2000/svg" xmlns:xlink="http://www.w3.org/1999/xlink">
    <title>编组 53</title>
    <g id="页面-1" stroke="none" stroke-width="1" fill="none" fill-rule="evenodd">
        <g id="0-2" transform="translate(-43.000000, -460.000000)">
            <g id="编组-54" transform="translate(0.000000, 185.000000)">
                <g id="编组-53" transform="translate(43.000000, 275.000000)">
                    <g id="编组-41">
                        <rect id="矩形备份-51" x="0" y="0" width="40" height="40"></rect>
                        <path d="M20.127535,6.05338614 L7.9717975,9.55711111 C7.395901,9.72310945 7,10.2445309 7,10.837045 L7,18.0189465 C7,26.1471319 12.2671195,33.3629264 20.075155,35.9317007 C20.35204,36.0227664 20.65147,36.0227664 20.92849,35.9317007 C28.73446,33.362793 34,26.1485985 34,18.0224131 L34,10.837045 C34,10.2446642 33.604315,9.72332278 33.02854,9.55721777 L20.884345,6.05349281 C20.637295,5.98220019 20.37472,5.98217352 20.127535,6.05338614 Z M22.677415,12.2795372 L22.804585,12.3904561 L26.179585,15.7237694 C26.227375,15.770969 26.270845,15.8208351 26.309995,15.8728346 L26.406655,16.0210998 L26.47888,16.1714983 L26.52667,16.3118969 L26.565685,16.5090949 L26.575,16.66656 L26.57122,16.7668257 L26.54773,16.9341573 L26.507905,17.0826892 L26.448505,17.230821 L26.3779,17.3608197 L26.287585,17.4892184 L26.179585,17.6093506 C26.131795,17.6565501 26.081305,17.699483 26.028655,17.7381493 L25.878535,17.833615 L25.726255,17.9049476 L25.5841,17.9521472 L25.38241,17.9909468 L25.225,17.99988 L15.775,17.99988 C15.029395,17.99988 14.425,17.4029526 14.425,16.66656 C14.425,15.9828335 14.9461,15.4192391 15.61759,15.3421733 L15.775,15.33324 L21.96475,15.33324 L20.895415,14.2760506 C20.36824,13.7553891 20.36824,12.9111309 20.895415,12.3904561 C21.341455,11.9498738 22.022125,11.8820879 22.54039,12.1871115 L22.677415,12.2795372 Z M25.38241,23.3242268 C26.0539,23.2471609 26.575,22.6835665 26.575,21.99984 C26.575,21.2634474 25.970605,20.66652 25.225,20.66652 L15.775,20.66652 L15.61759,20.6754533 L15.4159,20.7142529 L15.273745,20.7614524 L15.121465,20.832785 L14.971345,20.9282507 C14.918695,20.966917 14.868205,21.0098499 14.820415,21.0570494 L14.712415,21.1771816 L14.6221,21.3055803 L14.551495,21.435579 L14.492095,21.5837108 L14.45227,21.7322427 L14.42878,21.8995743 L14.425,21.99984 L14.4304,22.1195721 L14.43985,22.197838 L14.47333,22.3545031 L14.52112,22.4949017 L14.593345,22.6453002 L14.690005,22.7935654 C14.729155,22.8455649 14.772625,22.8954311 14.820415,22.9426306 L18.195415,26.2759306 L18.322585,26.3868628 C18.85219,26.7935254 19.61791,26.7565924 20.104585,26.2759306 C20.63176,25.7552691 20.63176,24.9110109 20.104585,24.3903494 L19.03525,23.33316 L25.225,23.33316 L25.38241,23.3242268 Z" id="形状" fill="#9794A9"></path>
                    </g>
                    <g id="icon-trade.8db03b0c" transform="translate(7.000000, 6.000000)"></g>
                </g>
            </g>
        </g>
    </g>
</svg>