<?xml version="1.0" encoding="UTF-8"?>
<svg width="40px" height="40px" viewBox="0 0 40 40" version="1.1" xmlns="http://www.w3.org/2000/svg" xmlns:xlink="http://www.w3.org/1999/xlink">
    <title>编组 40</title>
    <g id="页面-1" stroke="none" stroke-width="1" fill="none" fill-rule="evenodd">
        <g id="0-2" transform="translate(-43.000000, -359.000000)">
            <g id="编组-54" transform="translate(0.000000, 185.000000)">
                <g id="编组-40" transform="translate(43.000000, 174.000000)">
                    <rect id="矩形备份-50" x="0" y="0" width="40" height="40"></rect>
                    <path d="M22.2419389,11.4792692 C20.5224125,10.8161482 19.6635832,8.87815436 20.3236465,7.15066253 C20.9837098,5.42315729 22.9126742,4.5603093 24.6322005,5.22344369 L30.8591803,7.62483156 C32.5787066,8.28795256 33.4376694,10.225933 32.7776061,11.9534383 C32.1175428,13.6808765 30.188445,14.5438183 28.4689187,13.8806973 L27.6958655,13.5825073 L24.8158924,20.0807714 C24.6946317,20.3544361 24.5333511,20.5975447 24.3420555,20.8063448 L26.6516101,24.7011755 C26.8469077,25.0305917 26.8923972,25.428357 26.7766059,25.7936901 L24.9443566,31.575628 C24.8683186,31.8155202 24.7265143,32.0291449 24.5352187,32.1918427 C19.2825927,36.6600024 14.8861281,38.1004277 11.3977974,36.1492598 C7.84824953,34.1637834 7.13086421,30.2095827 9.00650859,24.7366902 L9.11655027,24.4959939 L12.1675289,19.2591071 C12.3603053,18.9282167 12.6848942,18.6960976 13.0593481,18.6215836 L19.8663512,17.2653215 C19.9874784,17.2411983 20.1106067,17.2340954 20.2321341,17.2438787 L22.7073716,11.6587729 L22.2419389,11.4792692 Z" id="路径" fill="#9794A9"></path>
                </g>
            </g>
        </g>
    </g>
</svg>